<svg width="512" height="512" viewBox="0 0 512 512" fill="none" xmlns="http://www.w3.org/2000/svg"><path fill-rule="evenodd" clip-rule="evenodd" d="M125.398 293.153A97.9 97.9 0 0 0 118 327.261a43 43 0 0 0 7.127 20.186 95.8 95.8 0 0 0 27.071 21.851l66.326 44.376a94.3 94.3 0 0 0 27.161 15.182 41.7 41.7 0 0 0 19.401 0 95.6 95.6 0 0 0 27.382-15.078l67.037-44.402a97.1 97.1 0 0 0 27.381-21.942A42.24 42.24 0 0 0 394 327.118a97.9 97.9 0 0 0-7.592-34.355l-58.63-185.435a52.1 52.1 0 0 0-6.985-16.898 22.4 22.4 0 0 0-9.054-6.63 51.5 51.5 0 0 0-18.107-1.585h-76.337a50.2 50.2 0 0 0-18.108 1.625 22 22 0 0 0-9.054 6.655 52.1 52.1 0 0 0-6.919 16.898zm171.247-171.579a43 43 0 0 1 5.704 14.207l50.34 166.172a208.8 208.8 0 0 0-60.183-20.447l-32.71-111.266a4.29 4.29 0 0 0-2.749-2.831 4.26 4.26 0 0 0-3.886.634 4.16 4.16 0 0 0-1.539 2.197l-32.335 111.227a207.6 207.6 0 0 0-60.454 20.525l50.546-166.172a43 43 0 0 1 5.717-14.22 18.9 18.9 0 0 1 7.528-5.589 42.5 42.5 0 0 1 15.197-1.3h36.125a42.5 42.5 0 0 1 15.21 1.3 18.75 18.75 0 0 1 7.541 5.615zm-38.97 200.344a71.5 71.5 0 0 0 43.976-11.997 36.6 36.6 0 0 1 1.537 14.455 36.5 36.5 0 0 1-4.215 13.907 51.06 51.06 0 0 1-20.009 19.251c-8.717 5.563-16.219 10.399-16.219 23.228a27.4 27.4 0 0 0 2.703 11.881 32.25 32.25 0 0 1-14.436-11.924 32.5 32.5 0 0 1-5.417-17.973v-.793c0-8.877 0-19.809-12.443-19.809a12.9 12.9 0 0 0-5.057 1.001 13.22 13.22 0 0 0-7.14 7.162 13.1 13.1 0 0 0-1.022 5.082 49.15 49.15 0 0 1-12.779-34.368 54.9 54.9 0 0 1 2.264-16.221c5.174 9.839 24.833 17.157 48.257 17.157z" fill="#FF5D01"/></svg>