<svg width="512" height="512" viewBox="0 0 512 512" fill="none" xmlns="http://www.w3.org/2000/svg"><rect x="103" y="103" width="306" height="306" rx="25" fill="#7642B0"/><path d="M140.513 298.999a6.2 6.2 0 0 1-2.512-.489 6.2 6.2 0 0 1-2.107-1.465 6.44 6.44 0 0 1-1.893-4.654 6.54 6.54 0 0 1 1.893-4.654 6.2 6.2 0 0 1 2.099-1.494 6.2 6.2 0 0 1 2.52-.507 6.3 6.3 0 0 1 4.62 2.001 6.5 6.5 0 0 1 1.435 2.13c.333.799.505 1.657.505 2.524a6.42 6.42 0 0 1-1.94 4.654 6.4 6.4 0 0 1-2.111 1.453 6.3 6.3 0 0 1-2.509.501m91.781-6.163a5 5 0 0 1-5 5h-4.365a5 5 0 0 1-4.212-2.306l-41.805-65.358a28 28 0 0 1-2.629-5.173.21.21 0 0 0-.192-.132.204.204 0 0 0-.204.226c.39 3.789.536 7.6.438 11.408v56.416a4.92 4.92 0 0 1-9.839 0V218a5 5 0 0 1 5-5h5.045c1.712 0 3.306.877 4.223 2.323l40.653 64.131q2.572 4.046 3.381 5.606a.13.13 0 0 0 .119.071.133.133 0 0 0 .132-.148 89 89 0 0 1-.583-12.323v-54.741a4.919 4.919 0 1 1 9.838 0zm66.63.369a4.654 4.654 0 0 1-4.653 4.631h-35.129a5 5 0 0 1-5-5V218a5 5 0 0 1 5-5h33.19a4.491 4.491 0 0 1 0 8.982h-23.12a5 5 0 0 0-5 5v18.201a5 5 0 0 0 5 5h20.926a4.468 4.468 0 0 1 0 8.935h-20.926a5 5 0 0 0-5 5v19.411a5 5 0 0 0 5 5h25.059a4.653 4.653 0 0 1 4.653 4.676M365 217.491a4.49 4.49 0 0 1-4.491 4.491h-14.99a5 5 0 0 0-5 5v65.935a4.92 4.92 0 0 1-9.839 0v-65.935a5 5 0 0 0-5-5h-14.713a4.491 4.491 0 0 1 0-8.982h49.542a4.49 4.49 0 0 1 4.491 4.491" fill="#fff"/></svg>