<svg width="512" height="512" viewBox="0 0 512 512" fill="none" xmlns="http://www.w3.org/2000/svg"><path d="m263.787 431-9.254-3.113s1.233-47.501-15.71-50.839c-11.089-13.1 1.639-559.279 42.177-1.862-7.701 3.945-13.59 10.771-16.425 19.038a177.6 177.6 0 0 0-.788 36.776" fill="url(#a)"/><path d="M268.518 385c25.225-18.8 44.543-44.305 55.707-73.55a163.65 163.65 0 0 0 7.36-91.653c-18.542-81.009-62.449-107.642-67.179-117.81A124.5 124.5 0 0 1 254 82l3.494 225.714s-7.24 68.979 11.024 77.286" fill="url(#b)"/><path d="M249.589 388s-76.848-52.093-72.403-144.247a193.4 193.4 0 0 1 18.768-80.26 194.3 194.3 0 0 1 50.522-65.287 21.6 21.6 0 0 0 5.788-7.735A21.5 21.5 0 0 0 254.097 81c4.783 10.246 4.005 152.981 4.507 169.675 1.946 64.939-3.629 125.067-9.015 137.325" fill="url(#c)"/><defs><linearGradient id="a" x1="201.583" y1="259.149" x2="308.252" y2="294.828" gradientUnits="userSpaceOnUse"><stop offset=".231" stop-color="#999875"/><stop offset=".563" stop-color="#9B9977"/><stop offset=".683" stop-color="#A09F7E"/><stop offset=".768" stop-color="#A9A889"/><stop offset=".837" stop-color="#B7B69A"/><stop offset=".896" stop-color="#C9C7B0"/><stop offset=".948" stop-color="#DEDDCB"/><stop offset=".994" stop-color="#F8F6EB"/><stop offset="1" stop-color="#FBF9EF"/></linearGradient><linearGradient id="b" x1="239.645" y1="80.387" x2="286.877" y2="378.195" gradientUnits="userSpaceOnUse"><stop stop-color="#48A547"/><stop offset="1" stop-color="#3F9143"/></linearGradient><linearGradient id="c" x1="170.575" y1="252.875" x2="299.021" y2="209.654" gradientUnits="userSpaceOnUse"><stop stop-color="#41A247"/><stop offset=".352" stop-color="#4BA74B"/><stop offset=".956" stop-color="#67B554"/><stop offset="1" stop-color="#69B655"/></linearGradient></defs></svg>