<svg width="512" height="512" viewBox="0 0 512 512" fill="none" xmlns="http://www.w3.org/2000/svg"><path fill-rule="evenodd" clip-rule="evenodd" d="M287.166 81c-2.405.038-4.788.46-7.06 1.25 20.165 13.225-3.504 32.425 7.511 48.75a27.83 27.83 0 0 1 2.485-16.011 27.9 27.9 0 0 1 10.983-11.926c3.567-2.963 5.845-4.026 5.082-8.925C304.965 86.112 294.251 81 287.166 81m28.789 5.175c-2.779 14.038-6.258 14.55-16.56 23.588a22.74 22.74 0 0 0-8.06 12.549 22.72 22.72 0 0 0 1.451 14.838c-42.558-16.5-97.106-26.475-137.098 2.075-14.382 10.262-23.169 25-40.906 31.012-11.465 3.913-22.73 2.763-29.89 14.113a17.61 17.61 0 0 0 .7 22.9c2.129 2.188 6.26 3.587 7.962 5.812.989 1.25.963 2.5 1.902 4.163a32.5 32.5 0 0 0 7.06 10.35c1.827 1.512 8.161 2.987 9.237 4.6 1.34 2.012-2.165 10 .776 11.25 1.991.913 7.786-9.3 8.349-10.2-1.151 8.038-2.666 22.3 6.384 10.425 4.293-5.637 4.556-7.5 11.778-8.75a104.8 104.8 0 0 1 42.895 1.583 104.7 104.7 0 0 1 38.649 18.647 104.6 104.6 0 0 1 27.901 32.575 104.4 104.4 0 0 1 12.458 41.02c-1.352-6.25-9.525-16.25-17.136-13.875-3.242 1-4.443 6.587-6.571 9.825a47.5 47.5 0 0 1-9.826 10.85 58.7 58.7 0 0 0-.901-18.15c-2.278 9.35-6.847 24.862-18.35 22.35a20.67 20.67 0 0 1-10.365-4.753 20.63 20.63 0 0 1-6.258-9.522c-1.489-9.5 8.562-20.638-7.597-21.425-32.419-1.588-24.922 46.025-5.783 58.438A41.3 41.3 0 0 0 165.451 366a86.37 86.37 0 0 0 80.553 3.243 86.25 86.25 0 0 0 32.059-26.363 86.1 86.1 0 0 0 16.012-38.268 88.02 88.02 0 0 1-8.086 59.876 86.3 86.3 0 0 1-15.395 20.85c-3.756 3.75-11.191 7.875-13.631 11.762a168 168 0 0 0 44.122-12.1 145.8 145.8 0 0 1-56.326 46 145.2 145.2 0 0 0 67.555-22.233 144.95 144.95 0 0 0 48.852-51.63 146.2 146.2 0 0 1-24.345 58.351 144.2 144.2 0 0 0 41.318-42.144 144 144 0 0 0 20.954-55.144 146.1 146.1 0 0 1 2.616 43.75 155.15 155.15 0 0 0 26.86-63.352 155.04 155.04 0 0 0-3.191-68.723 197.3 197.3 0 0 0-21.141-49.525 188 188 0 0 0-11.778-17.425c-1.665-2.163-10.565-10.075-10.565-12.5q-.112.363-.187 0c0 40.825-43.81 66.388-80.497 55.788a62.63 62.63 0 0 0 37.976-16.778 62.47 62.47 0 0 0 19.101-36.822 62.3 62.3 0 0 0-9.335-40.731 62.48 62.48 0 0 0-32.997-25.707" fill="#FF0844"/></svg>