<svg width="512" height="512" viewBox="0 0 512 512" fill="none" xmlns="http://www.w3.org/2000/svg"><mask id="a" style="mask-type:luminance" maskUnits="userSpaceOnUse" x="100" y="100" width="312" height="312"><path d="M100 100h312v312H100z" fill="#fff"/></mask><g mask="url(#a)"><path d="M245.782 100.08c-.676.065-2.808.286-4.732.429-44.304 4.004-85.8 27.911-112.112 64.662a154.7 154.7 0 0 0-27.534 68.159c-1.248 8.58-1.404 11.102-1.404 22.724s.156 14.157 1.404 22.724c8.476 58.591 50.18 107.809 106.717 126.048 10.127 3.263 20.8 5.486 32.929 6.838 4.732.52 25.168.52 29.9 0 20.943-2.327 38.701-7.514 56.199-16.445 2.691-1.365 3.211-1.742 2.847-2.041a2762 2762 0 0 1-25.415-34.06l-24.947-33.709-31.252-46.267a4460 4460 0 0 0-31.486-46.228c-.117-.039-.234 20.514-.299 45.63-.091 43.94-.13 45.708-.676 46.748a5.6 5.6 0 0 1-2.678 2.769c-.975.494-1.82.585-6.435.585h-5.278l-1.404-.884a5.7 5.7 0 0 1-2.041-2.236l-.65-1.365.065-61.152.091-61.178.949-1.196a7.8 7.8 0 0 1 2.262-1.859c1.248-.611 1.729-.663 7.02-.663 6.214 0 7.254.234 8.866 2.002.455.494 17.381 26 37.635 56.706l61.542 93.236 24.7 37.414 1.261-.819a160 160 0 0 0 32.045-28.119 155.36 155.36 0 0 0 36.725-79.755c1.248-8.58 1.404-11.102 1.404-22.724s-.156-14.144-1.404-22.724c-8.476-58.578-50.18-107.809-106.717-126.048a163.8 163.8 0 0 0-32.474-6.799c-2.938-.312-23.088-.65-25.61-.39m63.869 94.38a6.1 6.1 0 0 1 3.081 3.588c.234.78.299 17.745.234 55.965l-.091 54.834-9.659-14.82-9.698-14.82v-39.858c0-25.779.117-40.261.299-40.963a6.24 6.24 0 0 1 3.016-3.848c1.261-.65 1.716-.702 6.5-.702 4.511 0 5.304.065 6.318.611" fill="#000"/></g></svg>