<svg width="512" height="512" viewBox="0 0 512 512" fill="none" xmlns="http://www.w3.org/2000/svg"><path d="M431.068 291.846c-2.115-6.392-7.657-10.844-14.825-11.912-3.379-.503-7.249-.289-11.83.653-7.983 1.643-13.905 2.269-18.228 2.39 16.315-27.477 29.582-58.81 37.219-88.305 12.349-47.693 5.75-69.42-1.962-79.247-20.408-26.013-50.184-39.987-86.105-40.415-19.162-.233-35.985 3.54-44.76 6.255-8.171-1.439-16.956-2.241-26.174-2.39-17.28-.275-32.547 3.483-45.593 11.205-7.222-2.436-18.814-5.87-32.2-8.062-31.483-5.156-56.858-1.138-75.418 11.94-22.475 15.836-32.893 43.35-30.966 81.778.612 12.2 7.454 49.322 18.226 84.526 6.192 20.236 12.794 37.039 19.623 49.949 9.686 18.307 20.049 29.087 31.683 32.959 6.521 2.166 18.369 3.684 30.83-6.669 1.58 1.909 3.687 3.805 6.484 5.566 3.552 2.234 7.895 4.06 12.232 5.142 15.631 3.898 30.273 2.923 42.765-2.541.077 2.216.136 4.334.186 6.162.082 2.966.165 5.874.274 8.593.74 18.388 1.994 32.685 5.71 42.688.204.55.479 1.389.768 2.279 1.854 5.661 4.954 15.14 12.84 22.563 8.167 7.689 18.045 10.047 27.092 10.047 4.538 0 8.867-.594 12.664-1.405 13.535-2.894 28.907-7.302 40.027-23.096 10.514-14.932 15.625-37.42 16.55-72.855q.178-1.503.336-2.87l.221-1.873 2.476.217.638.043c13.786.627 30.643-2.289 40.995-7.086 8.181-3.786 34.394-17.591 28.222-36.229" fill="#000"/><path d="M406.804 295.474c-40.93 8.444-43.745-5.414-43.745-5.414 43.215-64.122 61.281-145.516 45.692-165.437-42.532-54.34-116.155-28.64-117.385-27.974l-.394.072c-8.087-1.68-17.136-2.678-27.308-2.845-18.52-.303-32.569 4.855-43.229 12.939 0 0-131.338-54.105-125.228 68.046 1.299 25.986 37.247 196.625 80.123 145.084 15.672-18.847 30.815-34.783 30.815-34.783 7.52 4.996 16.524 7.545 25.962 6.63l.734-.622c-.229 2.339-.124 4.628.293 7.338-11.046 12.34-7.8 14.506-29.88 19.052-22.344 4.605-9.219 12.802-.649 14.946 10.39 2.597 34.425 6.277 50.665-16.457l-.647 2.594c4.327 3.467 7.366 22.547 6.857 39.845-.51 17.296-.849 29.171 2.56 38.447 3.411 9.276 6.809 30.146 35.838 23.927 24.254-5.198 36.823-18.667 38.572-41.135 1.24-15.973 4.049-13.611 4.225-27.892l2.253-6.76c2.597-21.652.413-28.638 15.355-25.389l3.634.32c10.996.499 25.392-1.77 33.841-5.697 18.191-8.441 28.981-22.538 11.043-18.835z" fill="#336791"/><path d="M228.973 186.782c-3.653-.521-6.961-.039-8.635 1.261-.94.73-1.232 1.577-1.311 2.16-.21 1.544.845 3.252 1.494 4.132 1.835 2.493 4.514 4.207 7.166 4.584q.577.083 1.148.081c4.423 0 8.445-3.531 8.799-6.138.443-3.264-4.179-5.441-8.661-6.08m121.009.103c-.349-2.558-4.79-3.288-9.004-2.687-4.209.601-8.29 2.549-7.949 5.113.273 1.995 3.785 5.399 7.942 5.399q.528 0 1.063-.076c2.775-.394 4.811-2.201 5.779-3.242 1.472-1.587 2.325-3.356 2.169-4.507" fill="#fff"/><path d="M420.64 294.292c-1.56-4.701-6.581-6.213-14.923-4.497-24.769 5.095-33.64 1.566-36.552-.571 19.253-29.23 35.091-64.563 43.635-97.528 4.047-15.616 6.283-30.118 6.466-41.939.202-12.974-2.016-22.507-6.589-28.331-18.436-23.478-45.496-36.073-78.25-36.418-22.518-.252-41.544 5.49-45.232 7.106-7.767-1.925-16.234-3.107-25.453-3.258-16.904-.272-31.516 3.761-43.614 11.983-5.255-1.95-18.835-6.596-35.444-9.263-28.713-4.606-51.53-1.115-67.812 10.38-19.428 13.718-28.398 38.24-26.66 72.882.584 11.655 7.248 47.509 17.764 81.845 13.842 45.194 28.889 70.778 44.72 76.041a20.1 20.1 0 0 0 6.346 1.046c5.775 0 12.855-2.594 20.222-11.42a727 727 0 0 1 27.872-31.432c6.224 3.329 13.061 5.188 20.053 5.375q.022.273.049.545a162 162 0 0 0-3.536 4.353c-4.845 6.13-5.853 7.406-21.449 10.606-4.437.913-16.219 3.333-16.393 11.564-.187 8.994 13.929 12.771 15.537 13.172 5.605 1.398 11.004 2.088 16.153 2.088 12.523 0 23.543-4.102 32.35-12.039-.271 32.062 1.071 63.655 4.933 73.281 3.165 7.88 10.893 27.138 35.306 27.137 3.582 0 7.525-.415 11.862-1.342 25.479-5.443 36.543-16.666 40.823-41.408 2.29-13.223 6.221-44.799 8.07-61.736 3.901 1.213 8.923 1.769 14.353 1.767 11.325 0 24.392-2.398 32.587-6.188 9.206-4.261 25.819-14.716 22.806-23.801m-60.675-114.45c-.084 5-.775 9.539-1.507 14.278-.788 5.096-1.602 10.364-1.807 16.76-.203 6.224.577 12.695 1.331 18.954 1.525 12.64 3.089 25.654-2.966 38.495a51 51 0 0 1-2.682-5.497c-.753-1.818-2.387-4.738-4.65-8.78-8.803-15.733-29.417-52.577-18.864-67.611 3.143-4.475 11.12-9.076 31.145-6.599m-24.273-84.71c29.349.647 52.565 11.588 69.001 32.521 12.607 16.055-1.275 89.111-41.462 152.137q-.607-.769-1.219-1.531l-.509-.634c10.385-17.092 8.354-34.003 6.546-48.996-.742-6.153-1.444-11.965-1.265-17.424.184-5.786.952-10.749 1.695-15.547.912-5.913 1.84-12.032 1.584-19.245.192-.756.269-1.65.168-2.712-.653-6.916-8.577-27.617-24.727-46.353-8.835-10.248-21.718-21.716-39.309-29.451 7.567-1.563 17.913-3.02 29.497-2.764M171.468 315.89c-8.116 9.725-13.721 7.861-15.564 7.249-12.01-3.992-25.945-29.289-38.231-69.405-10.631-34.71-16.844-69.614-17.336-79.402-1.552-30.954 5.977-52.527 22.379-64.12 26.693-18.865 70.58-7.573 88.214-1.846-.253.249-.517.482-.767.736-28.939 29.125-28.252 78.887-28.181 81.929-.002 1.173.097 2.835.231 5.12.498 8.37 1.426 23.947-1.051 41.588-2.3 16.393 2.771 32.438 13.91 44.021a49 49 0 0 0 3.6 3.384c-4.958 5.292-15.734 16.995-27.204 30.746m30.924-41.121c-8.978-9.336-13.055-22.322-11.189-35.632 2.614-18.634 1.65-34.864 1.131-43.583-.073-1.221-.137-2.29-.175-3.133 4.228-3.736 23.819-14.197 37.79-11.006 6.375 1.454 10.26 5.781 11.875 13.223 8.358 38.529 1.106 54.587-4.721 67.492-1.201 2.659-2.336 5.172-3.305 7.771l-.751 2.01c-1.901 5.081-3.67 9.805-4.767 14.291-9.544-.027-18.828-4.091-25.888-11.434m1.465 51.961c-2.787-.694-5.294-1.899-6.764-2.899 1.228-.576 3.414-1.36 7.205-2.138 18.348-3.764 21.182-6.421 27.369-14.251 1.419-1.796 3.027-3.83 5.254-6.309l.003-.003c3.316-3.701 4.834-3.073 7.585-1.935 2.23.918 4.402 3.704 5.283 6.77.417 1.447.884 4.195-.647 6.334-12.926 18.036-31.761 17.805-45.288 14.431m96.02 89.048c-22.445 4.793-30.393-6.62-35.63-19.668-3.38-8.424-5.042-46.408-3.863-88.356a5 5 0 0 0-.218-1.604 21 21 0 0 0-.628-2.964c-1.752-6.104-6.024-11.21-11.148-13.326-2.036-.841-5.772-2.383-10.263-1.238.958-3.932 2.618-8.373 4.419-13.181l.755-2.022c.85-2.28 1.918-4.643 3.046-7.143 6.098-13.502 14.45-31.995 5.386-73.773-3.395-15.649-14.734-23.291-31.921-21.515-10.304 1.062-19.731 5.206-24.433 7.581a78 78 0 0 0-2.8 1.484c1.312-15.766 6.27-45.232 24.817-63.874 11.678-11.736 27.23-17.533 46.178-17.22 37.336.609 61.278 19.704 74.79 35.617 11.644 13.711 17.948 27.524 20.464 34.974-18.922-1.918-31.791 1.804-38.315 11.099-14.192 20.22 7.765 59.463 18.317 78.324 1.936 3.456 3.606 6.443 4.131 7.713 3.437 8.3 7.886 13.841 11.134 17.886.996 1.239 1.961 2.441 2.696 3.492-5.731 1.646-16.025 5.451-15.087 24.468-.757 9.542-6.137 54.217-8.87 70.001-3.609 20.853-11.308 28.618-32.957 33.245m93.688-106.848c-5.86 2.71-15.667 4.744-24.983 5.181-10.29.48-15.529-1.149-16.761-2.151-.578-11.851 3.847-13.089 8.532-14.4a36 36 0 0 0 2.147-.648q.645.525 1.42 1.036c8.27 5.44 23.022 6.027 43.848 1.743l.228-.045c-2.809 2.617-7.616 6.129-14.431 9.284" fill="#fff"/></svg>