<svg width="512" height="512" viewBox="0 0 512 512" fill="none" xmlns="http://www.w3.org/2000/svg"><path d="M290 255.5c0-17.958-15.23-32.5-34-32.5-18.783 0-34 14.542-34 32.5 0 17.946 15.23 32.5 34 32.5 18.783 0 34-14.554 34-32.5" fill="#53C1DE"/><path fill-rule="evenodd" clip-rule="evenodd" d="M363.88 195.984c7.018-27.617 15.835-78.802-15.252-96.153-30.938-17.276-71.201 15.828-92.454 35.705-21.204-19.679-62.596-52.634-93.645-35.234-30.926 17.338-21.39 67.681-14.223 95.459C119.451 203.687 70 220.778 70 255.702c0 34.813 49.402 53.414 78.083 61.34-7.192 27.927-16.257 77.552 14.706 94.853 31.174 17.4 72.441-14.787 93.893-34.875 21.402 19.989 61.281 52.386 92.219 35.048 31.049-17.412 22.965-67.916 15.785-95.856 27.801-7.938 77.314-26.131 77.314-60.51 0-34.59-49.724-51.817-78.12-59.718m-3.522 105.429a359 359 0 0 0-18.835-45.637 359 359 0 0 0 18.104-44.968c20.819 5.846 66.476 19.196 66.476 44.894 0 25.933-43.809 39.42-65.745 45.711m-19.418 97.329c-23.089 12.942-57.387-18.031-73.185-32.756a359 359 0 0 0 31.174-38.343 385 385 0 0 0 50.393-7.517c5.047 19.753 14.806 65.613-8.382 78.616m-170.202-.185c-23.102-12.893-12.537-57.167-7.242-77.75a385 385 0 0 0 50.121 7.034 384 384 0 0 0 31.942 38.206c-13.429 12.571-51.621 45.464-74.821 32.51M85.872 255.702c0-26.032 45.396-39.296 66.687-45.117a359 359 0 0 0 18.129 45.489 371 371 0 0 0-18.352 46.144c-20.299-5.623-66.464-20.472-66.464-46.516m84.618-142.074c23.188-13.004 59.148 18.65 74.548 32.893a372 372 0 0 0-31.694 37.97c-17.484 1.573-34.236 4.087-49.637 7.481-5.779-22.416-16.381-65.366 6.783-78.344m139.81 87.595c11.866 1.449 23.25 3.381 33.926 5.746a322 322 0 0 1-11.904 31.011 508 508 0 0 0-22.022-36.757m-54.126-43.705a335 335 0 0 1 21.898 25.586 484 484 0 0 0-43.97 0 347 347 0 0 1 22.072-25.586m-76.347 80.449a334 334 0 0 1-11.83-31.171 373 373 0 0 1 33.728-5.598 446 446 0 0 0-21.898 36.782m22.233 73.341a348 348 0 0 1-34.274-5.338c3.274-10.279 7.316-20.955 12.053-31.803a446 446 0 0 0 22.221 37.141m54.56 43.655a347 347 0 0 1-22.382-25.933 548 548 0 0 0 44.218-.075 335 335 0 0 1-21.836 26.008m75.851-81.354c4.96 10.973 9.163 21.599 12.487 31.692a348 348 0 0 1-34.696 5.722 508 508 0 0 0 22.196-37.401m-42.408 39.283a515 515 0 0 1-67.741.124 433.4 433.4 0 0 1-34.05-56.944 433.4 433.4 0 0 1 33.852-56.844 464 464 0 0 1 67.815 0 483 483 0 0 1 33.964 56.621 483 483 0 0 1-33.84 57.043m50.642-199.749c23.188 12.954 12.871 58.95 7.812 78.964a397 397 0 0 0-49.749-7.617 359 359 0 0 0-31.446-38.008c15.599-14.551 50.418-46.169 73.383-33.339" fill="#53C1DE"/></svg>