<svg width="512" height="512" viewBox="0 0 512 512" fill="none" xmlns="http://www.w3.org/2000/svg"><path d="M129 256v112c0 8.284 6.716 15 15 15h224c8.284 0 15-6.716 15-15V144c0-8.284-6.716-15-15-15H144c-8.284 0-15 6.716-15 15z" fill="#007ACC"/><path d="m185.08 256.669-.08 10.37h33.063v93.662h23.386v-93.662h33.063V256.87c0-5.629-.121-10.332-.282-10.453-.121-.16-20.241-.241-44.635-.201l-44.394.121zm148.798-10.627c6.45 1.609 11.37 4.462 15.886 9.125 2.339 2.493 5.806 7.036 6.088 8.121.08.321-10.967 7.718-17.66 11.858-.242.161-1.211-.884-2.299-2.493-3.266-4.742-6.693-6.793-11.935-7.154-7.7-.524-12.661 3.497-12.62 10.209 0 1.97.282 3.136 1.089 4.744 1.693 3.497 4.838 5.588 14.717 9.848 18.184 7.799 25.966 12.945 30.805 20.26 5.403 8.161 6.613 21.185 2.943 30.873-4.031 10.531-14.031 17.687-28.104 20.059-4.354.763-14.676.643-19.353-.201-10.201-1.81-19.878-6.834-25.846-13.426-2.339-2.573-6.895-9.286-6.612-9.769.121-.16 1.168-.803 2.337-1.487 1.13-.643 5.404-3.096 9.436-5.427l7.298-4.221 1.532 2.251c2.137 3.256 6.814 7.718 9.637 9.205 8.104 4.262 19.233 3.659 24.717-1.246 2.338-2.13 3.306-4.341 3.306-7.598 0-2.934-.363-4.22-1.895-6.43-1.975-2.814-6.008-5.186-17.459-10.13-13.104-5.628-18.749-9.125-23.91-14.673-2.984-3.215-5.807-8.361-6.976-12.663-.967-3.577-1.21-12.541-.443-16.159 2.702-12.623 12.257-21.425 26.047-24.039 4.475-.844 14.878-.523 19.274.563" fill="#fff"/></svg>