<svg height="800" width="800" xmlns="http://www.w3.org/2000/svg" viewBox="0 0 512 512" xml:space="preserve"><path d="M459.21 255.989c0-11.3-.913-22.635-2.794-33.803a443 443 0 0 0 48.855-24.665 254 254 0 0 0-13.216-40.711c-18.312 1.81-36.36 4.728-54.022 8.735a203 203 0 0 0-17.608-28.988 201.7 201.7 0 0 0-22.187-25.684 444 444 0 0 0 25.016-48.689 257 257 0 0 0-34.541-25.139 452 452 0 0 0-38.646 38.777 199 199 0 0 0-31.246-13.137 202.6 202.6 0 0 0-33.039-7.741c-1.687-18.022-4.516-36.088-8.471-54.075a261.4 261.4 0 0 0-42.616 0c-3.955 17.986-6.784 36.052-8.471 54.075-11.212 1.66-22.266 4.235-33.022 7.741a198.4 198.4 0 0 0-31.264 13.137 452 452 0 0 0-38.644-38.777 256.5 256.5 0 0 0-34.55 25.139 452 452 0 0 0 25.007 48.689c-8.066 7.925-15.518 16.519-22.178 25.684a205.7 205.7 0 0 0-17.609 28.988c-17.644-4.008-35.692-6.925-54.022-8.735a254 254 0 0 0-13.216 40.711c15.905 9.288 32.213 17.52 48.856 24.665-1.881 11.168-2.794 22.502-2.794 33.803 0 11.335.913 22.653 2.794 33.812a450 450 0 0 0-48.856 24.674 254.5 254.5 0 0 0 13.216 40.719 442 442 0 0 0 54.022-8.743 206 206 0 0 0 17.609 28.997 204.6 204.6 0 0 0 22.178 25.675c-9.244 15.579-17.592 31.844-25.007 48.688a258 258 0 0 0 34.55 25.14 448 448 0 0 0 38.644-38.786c10 5.255 20.492 9.658 31.264 13.154a201 201 0 0 0 33.022 7.733 444 444 0 0 0 8.471 54.066 257.4 257.4 0 0 0 42.616 0 444 444 0 0 0 8.471-54.066 201.7 201.7 0 0 0 33.039-7.733 200.5 200.5 0 0 0 31.246-13.154 448 448 0 0 0 38.646 38.786 258.5 258.5 0 0 0 34.541-25.14c-7.398-16.844-15.746-33.109-25.016-48.688 8.11-7.908 15.526-16.519 22.187-25.675a204.7 204.7 0 0 0 17.608-28.997 443 443 0 0 0 54.022 8.743 254.4 254.4 0 0 0 13.216-40.719 448 448 0 0 0-48.855-24.674c1.881-11.159 2.794-22.477 2.794-33.812m-349.129 47.414a153.2 153.2 0 0 1-7.452-47.414 153.4 153.4 0 0 1 7.452-47.414c4.938-15.228 12.337-29.7 21.809-42.713a154.7 154.7 0 0 1 33.988-33.988 152.6 152.6 0 0 1 42.704-21.801c8.787-2.856 17.855-4.798 27.046-6.01v140.186l-121.505 70.155a162 162 0 0 1-4.042-11.001m145.915-23.9 121.399 70.093c-8.944 11.564-19.454 21.941-31.264 30.535a153.5 153.5 0 0 1-42.704 21.8c-15.236 4.93-31.229 7.452-47.414 7.452s-32.195-2.522-47.432-7.452a153.3 153.3 0 0 1-42.704-21.8c-11.827-8.594-22.336-18.971-31.264-30.535zm145.923 23.9a142 142 0 0 1-4.051 11.002L276.363 244.24V104.063c9.191 1.213 18.259 3.155 27.064 6.01a152.6 152.6 0 0 1 42.704 21.801 155.5 155.5 0 0 1 34.005 33.988 153.5 153.5 0 0 1 21.783 42.713c4.956 15.254 7.469 31.255 7.452 47.414.018 16.185-2.496 32.187-7.452 47.414" style="fill:#0f0f0f"/></svg>