<svg width="3864" height="2164" viewBox="0 0 3864 2164" fill="none" xmlns="http://www.w3.org/2000/svg">
<path d="M3318.01 1082.21L2891.51 654.707L3104.59 227.541L3797.67 921.957C3840.1 964.496 3863.93 1022.13 3863.93 1082.21C3863.93 1142.29 3840.1 1199.92 3797.67 1242.46L2944.67 2097.12C2923.7 2118.15 2898.78 2134.83 2871.34 2146.21C2843.91 2157.6 2814.5 2163.46 2784.8 2163.46C2755.1 2163.46 2725.69 2157.6 2698.26 2146.21C2670.82 2134.83 2645.9 2118.15 2624.92 2097.12C2582.52 2054.59 2558.71 1996.98 2558.71 1936.92C2558.71 1876.85 2582.52 1819.24 2624.92 1776.71L3318.01 1082.21Z" fill="black"/>
<path d="M2625.01 66.3738C2645.99 45.3348 2670.91 28.6421 2698.35 17.2524C2725.79 5.8628 2755.21 0 2784.92 0C2814.64 0 2844.06 5.8628 2871.5 17.2524C2898.94 28.6421 2923.86 45.3348 2944.84 66.3738L3104.84 226.707L1239.01 2096.37C1218.03 2117.41 1193.11 2134.11 1165.66 2145.5C1138.22 2156.89 1108.8 2162.75 1079.09 2162.75C1049.38 2162.75 1019.96 2156.89 992.52 2145.5C965.078 2134.11 940.154 2117.41 919.175 2096.37L759.258 1936.04L2625.01 66.3738ZM1825.42 654.041L1505.59 974.54L1079.01 547.04L545.925 1081.37L972.425 1508.79L759.258 1936.04L66.2583 1241.62C23.828 1199.09 0 1141.46 0 1081.37C0 1021.29 23.828 963.662 66.2583 921.124L919.175 66.3738C940.154 45.3348 965.078 28.6421 992.52 17.2524C1019.96 5.8628 1049.38 0 1079.09 0C1108.8 0 1138.22 5.8628 1165.66 17.2524C1193.11 28.6421 1218.03 45.3348 1239.01 66.3738L1825.42 654.041Z" fill="black"/>
</svg>
