<svg width="285" height="285" viewBox="0 0 285 285" fill="none" xmlns="http://www.w3.org/2000/svg"><path d="M247 54.076a14.7 14.7 0 0 0-2.989 0H39.864c-1.308.02-2.608.215-3.864.58L141.354 159z" fill="#000"/><path d="m259.115 64-107.38 106.457a14.78 14.78 0 0 1-10.399 4.27 14.78 14.78 0 0 1-10.398-4.27L24.516 64.807A14.6 14.6 0 0 0 24 68.48v146.837a14.65 14.65 0 0 0 4.32 10.383 14.78 14.78 0 0 0 10.43 4.3h206.5c3.912 0 7.664-1.547 10.43-4.301a14.65 14.65 0 0 0 4.32-10.383V68.479a14.6 14.6 0 0 0-.885-4.479M48.854 215.316H38.603v-10.499l53.616-52.935 10.398 10.352zm196.248 0h-10.325l-53.763-53.082 10.398-10.352 53.617 52.935z" fill="#000"/></svg>